<svg width="100" height="100" viewBox="0 0 100 100" fill="none" xmlns="http://www.w3.org/2000/svg">
<g clip-path="url(#clip0_1_5)">
<mask id="path-1-inside-1_1_5" fill="white">
<path fill-rule="evenodd" clip-rule="evenodd" d="M50 2.83728C48.5249 2.83728 47.0499 3.62846 46.3456 5.21081L35.4027 29.7976C34.8317 31.0805 33.6299 31.9701 32.2362 32.1413L6.05518 35.3584C2.70838 35.7696 1.34086 39.8832 3.7753 42.2164L23.3218 60.9498C24.301 61.8882 24.7379 63.2588 24.4826 64.5908L19.3235 91.4994C18.6777 94.8676 22.2925 97.4334 25.2591 95.7125L47.9928 82.5244C48.6135 82.1643 49.3067 81.9843 50 81.9843V2.83728Z"/>
</mask>
<path fill-rule="evenodd" clip-rule="evenodd" d="M50 2.83728C48.5249 2.83728 47.0499 3.62846 46.3456 5.21081L35.4027 29.7976C34.8317 31.0805 33.6299 31.9701 32.2362 32.1413L6.05518 35.3584C2.70838 35.7696 1.34086 39.8832 3.7753 42.2164L23.3218 60.9498C24.301 61.8882 24.7379 63.2588 24.4826 64.5908L19.3235 91.4994C18.6777 94.8676 22.2925 97.4334 25.2591 95.7125L47.9928 82.5244C48.6135 82.1643 49.3067 81.9843 50 81.9843V2.83728Z" fill="#E9BA13"/>
<path d="M46.3456 5.21081L45.432 4.8042L45.432 4.8042L46.3456 5.21081ZM50 2.83728H51V1.83728L50 1.83728L50 2.83728ZM35.4027 29.7976L34.4891 29.391L34.4891 29.391L35.4027 29.7976ZM32.2362 32.1413L32.1142 31.1488L32.1142 31.1488L32.2362 32.1413ZM6.05518 35.3584L5.93322 34.3658L5.93322 34.3658L6.05518 35.3584ZM3.7753 42.2164L3.08337 42.9383L3.08337 42.9383L3.7753 42.2164ZM23.3218 60.9498L24.0138 60.2278L24.0138 60.2278L23.3218 60.9498ZM24.4826 64.5908L25.4647 64.7791L25.4647 64.7791L24.4826 64.5908ZM19.3235 91.4994L18.3414 91.3111L18.3414 91.3111L19.3235 91.4994ZM25.2591 95.7125L24.7573 94.8475L24.7573 94.8475L25.2591 95.7125ZM47.9928 82.5244L48.4946 83.3894L48.4946 83.3894L47.9928 82.5244ZM50 81.9843V82.9843H51V81.9843H50ZM47.2592 5.61743C47.7881 4.42907 48.8824 3.83728 50 3.83728L50 1.83728C48.1675 1.83728 46.3116 2.82785 45.432 4.8042L47.2592 5.61743ZM36.3163 30.2043L47.2592 5.61743L45.432 4.8042L34.4891 29.391L36.3163 30.2043ZM32.3581 33.1339C34.1003 32.9198 35.6026 31.8079 36.3163 30.2043L34.4891 29.391C34.0609 30.3532 33.1595 31.0203 32.1142 31.1488L32.3581 33.1339ZM6.17714 36.3509L32.3581 33.1339L32.1142 31.1488L5.93322 34.3658L6.17714 36.3509ZM4.46723 41.4944C2.6414 39.7445 3.66704 36.6593 6.17714 36.3509L5.93322 34.3658C1.74972 34.8799 0.0403181 40.0219 3.08337 42.9383L4.46723 41.4944ZM24.0138 60.2278L4.46723 41.4944L3.08337 42.9383L22.6299 61.6717L24.0138 60.2278ZM25.4647 64.7791C25.7839 63.1141 25.2377 61.4008 24.0138 60.2278L22.6299 61.6717C23.3643 62.3755 23.692 63.4035 23.5005 64.4025L25.4647 64.7791ZM20.3056 91.6877L25.4647 64.7791L23.5005 64.4025L18.3414 91.3111L20.3056 91.6877ZM24.7573 94.8475C22.5324 96.1382 19.8212 94.2138 20.3056 91.6877L18.3414 91.3111C17.5341 95.5214 22.0527 98.7287 25.7609 96.5775L24.7573 94.8475ZM47.491 81.6594L24.7573 94.8475L25.7609 96.5775L48.4946 83.3894L47.491 81.6594ZM50 80.9843C49.1336 80.9843 48.2668 81.2094 47.491 81.6594L48.4946 83.3894C48.9601 83.1193 49.4798 82.9843 50 82.9843V80.9843ZM51 81.9843V2.83728H49V81.9843H51Z" fill="#E9BA13" mask="url(#path-1-inside-1_1_5)"/>
<path d="M52.284 5.82074L63.2269 30.4076C64.012 32.1715 65.6645 33.3946 67.5809 33.6301L93.7619 36.8472C95.8536 37.1042 96.7083 39.6752 95.1868 41.1334L75.6403 59.8668C74.2939 61.1571 73.6931 63.0418 74.0443 64.8732L79.2034 91.7818C79.607 93.887 77.3477 95.4906 75.4936 94.415L52.7598 81.2269C51.0531 80.2368 48.9469 80.2368 47.2402 81.2269L24.5064 94.415C22.6523 95.4906 20.393 93.887 20.7966 91.7818L25.9557 64.8732C26.3069 63.0418 25.7061 61.1571 24.3597 59.8668L4.8132 41.1334C3.29167 39.6752 4.14637 37.1042 6.23812 36.8472L32.4191 33.6301C34.3355 33.3946 35.988 32.1715 36.7731 30.4076L47.716 5.82074C48.5963 3.84279 51.4037 3.84279 52.284 5.82074Z" stroke="#C8A010" stroke-width="3"/>
</g>
<defs>
<clipPath id="clip0_1_5">
<rect width="100" height="100" fill="white"/>
</clipPath>
</defs>
</svg>
