<svg width="100" height="100" viewBox="0 0 100 100" fill="none" xmlns="http://www.w3.org/2000/svg">
<g clip-path="url(#clip0_1_5)">
<path d="M52.284 5.82074L63.2269 30.4076C64.012 32.1715 65.6645 33.3946 67.5809 33.6301L93.7619 36.8472C95.8536 37.1042 96.7083 39.6752 95.1868 41.1334L75.6403 59.8668C74.2939 61.1571 73.6931 63.0418 74.0443 64.8732L79.2034 91.7818C79.607 93.887 77.3477 95.4906 75.4936 94.415L52.7598 81.2269C51.0531 80.2368 48.9469 80.2368 47.2402 81.2269L24.5064 94.415C22.6523 95.4906 20.393 93.887 20.7966 91.7818L25.9557 64.8732C26.3069 63.0418 25.7061 61.1571 24.3597 59.8668L4.8132 41.1334C3.29167 39.6752 4.14637 37.1042 6.23812 36.8472L32.4191 33.6301C34.3355 33.3946 35.988 32.1715 36.7731 30.4076L47.716 5.82074C48.5963 3.84279 51.4037 3.84279 52.284 5.82074Z" fill="#E9BA13" stroke="#C8A010" stroke-width="3"/>
</g>
<defs>
<clipPath id="clip0_1_5">
<rect width="100" height="100" fill="white"/>
</clipPath>
</defs>
</svg>
