<svg width="96" height="95" viewBox="0 0 96 95" fill="none" xmlns="http://www.w3.org/2000/svg">
<path d="M49.3704 4.22736L60.3133 28.8142C61.2411 30.8989 63.1941 32.3444 65.4589 32.6227L91.6399 35.8397C92.895 35.9939 93.4078 37.5365 92.4949 38.4115L72.9483 57.1448C71.3572 58.6698 70.6472 60.8971 71.0622 63.0615L76.2213 89.9701C76.4634 91.2332 75.1079 92.1954 73.9954 91.55L51.2616 78.3619C49.2446 77.1918 46.7554 77.1918 44.7384 78.3619L22.0046 91.55C20.8921 92.1954 19.5366 91.2332 19.7787 89.9701L24.9378 63.0615C25.3528 60.8971 24.6428 58.6698 23.0517 57.1448L3.50513 38.4115C2.59221 37.5365 3.10503 35.9939 4.36008 35.8397L30.5411 32.6227C32.8059 32.3444 34.7589 30.8989 35.6867 28.8142L46.6296 4.22736C47.1578 3.04059 48.8422 3.04059 49.3704 4.22736Z" stroke="#C8A010" stroke-width="5"/>
</svg>
